<svg width="13.000000" height="7.000000" viewBox="0 0 13 7" fill="none" xmlns="http://www.w3.org/2000/svg" xmlns:xlink="http://www.w3.org/1999/xlink">
	<desc>
			Created with Pixso.
	</desc>
	<defs/>
	<path id="Vector" d="M-0.36 -0.36C-0.31 -0.41 -0.26 -0.44 -0.2 -0.47C-0.14 -0.49 -0.07 -0.51 0 -0.51C0.06 -0.51 0.13 -0.49 0.19 -0.47C0.25 -0.44 0.3 -0.41 0.35 -0.36L6 5.29L11.64 -0.36C11.69 -0.41 11.74 -0.44 11.8 -0.47C11.86 -0.49 11.93 -0.51 12 -0.51C12.06 -0.51 12.13 -0.49 12.19 -0.47C12.25 -0.44 12.3 -0.41 12.35 -0.36C12.4 -0.31 12.43 -0.26 12.46 -0.2C12.48 -0.14 12.5 -0.07 12.5 1.52e-5C12.5 0.06 12.48 0.13 12.46 0.19C12.43 0.25 12.4 0.3 12.35 0.35L6.35 6.35C6.3 6.4 6.25 6.43 6.19 6.46C6.13 6.48 6.06 6.5 6 6.5C5.93 6.5 5.86 6.48 5.8 6.46C5.74 6.43 5.69 6.4 5.64 6.35L-0.36 0.35C-0.41 0.3 -0.44 0.25 -0.47 0.19C-0.49 0.13 -0.51 0.06 -0.51 1.52e-5C-0.51 -0.07 -0.49 -0.14 -0.47 -0.2C-0.44 -0.26 -0.41 -0.31 -0.36 -0.36Z" fill="#E7AB5C" fill-opacity="1.000000" fill-rule="evenodd"/>
</svg>
