<svg width="24" height="24" viewBox="0 0 24 24" fill="none" xmlns="http://www.w3.org/2000/svg">
<path d="M17.5855 7.09041H6.41452C5.63025 7.09041 4.99219 7.74773 4.99219 8.55577V15.4442C4.99219 15.864 5.16464 16.2428 5.44008 16.5102L5.44064 16.5107C5.69536 16.7578 6.03797 16.9096 6.41452 16.9096H17.5854C18.3697 16.9096 19.0078 16.2523 19.0078 15.4442V8.55577C19.0078 7.74778 18.3698 7.09041 17.5855 7.09041ZM12 12.6181L11.1315 11.8486L11.131 11.8482L7.03073 8.21536H16.9692L12 12.6181ZM9.88655 12.2487L6.11719 15.1854V8.90906L9.88655 12.2487ZM10.743 13.0075L11.627 13.7907C11.7334 13.885 11.8667 13.9321 12 13.9321C12.1333 13.9321 12.2666 13.885 12.373 13.7907L13.257 13.0075L16.8214 15.7846H7.17867L10.743 13.0075ZM14.1135 12.2487L17.8828 8.90906V15.1854L14.1135 12.2487ZM12 0C5.38317 0 0 5.38322 0 12C0 18.6168 5.38317 24 12 24C18.6168 24 24 18.6168 24 12C24 5.38322 18.6168 0 12 0ZM12 22.875C6.00352 22.875 1.125 17.9965 1.125 12C1.125 6.00352 6.00352 1.125 12 1.125C17.9965 1.125 22.875 6.00352 22.875 12C22.875 17.9965 17.9965 22.875 12 22.875Z" fill="white"/>
</svg>
