<svg width="24" height="24" viewBox="0 0 24 24" fill="none" xmlns="http://www.w3.org/2000/svg">
<path d="M17.6397 8.12086H16.8697V7.01822C16.8697 6.86902 16.8104 6.72595 16.7049 6.62048L15.2414 5.15695C15.1359 5.05147 14.9928 4.9922 14.8436 4.99219H10.8097C10.499 4.99219 10.2472 5.24405 10.2472 5.55469V8.12086H9.07195C8.73197 7.38867 7.99008 6.87947 7.13109 6.87947C5.95172 6.87947 4.99223 7.83895 4.99223 9.01833V16.8689C4.99223 18.0483 5.95177 19.0078 7.13119 19.0078C7.99017 19.0078 8.73202 18.4986 9.072 17.7664H17.6397C18.3941 17.7664 19.0079 17.1526 19.0079 16.3982V9.489C19.0078 8.73459 18.3941 8.12086 17.6397 8.12086ZM8.14505 16.8689C8.14505 17.428 7.69017 17.8828 7.13105 17.8828C6.57202 17.8828 6.11719 17.428 6.11719 16.8689V9.01833C6.11719 8.4593 6.57202 8.00447 7.13105 8.00447H7.13114C7.69022 8.00447 8.14505 8.4593 8.14505 9.01833V16.8689ZM11.3722 6.11719H14.6106L15.7446 7.25119V8.12081H11.3721V6.11719H11.3722ZM17.8828 16.3982C17.8827 16.4627 17.8571 16.5245 17.8115 16.5701C17.7659 16.6157 17.7041 16.6413 17.6396 16.6414H9.27005V9.24586H17.6396C17.7041 9.24593 17.7659 9.27158 17.8115 9.31717C17.8571 9.36276 17.8827 9.42457 17.8828 9.48905V16.3982ZM16.2813 10.231H10.8355C10.5248 10.231 10.273 10.4828 10.273 10.7935V12.4226C10.273 12.7332 10.5248 12.9851 10.8355 12.9851H16.2813C16.592 12.9851 16.8438 12.7332 16.8438 12.4226V10.7935C16.8438 10.4828 16.592 10.231 16.2813 10.231ZM15.7188 11.8601H11.3979V11.356H15.7188V11.8601ZM12 0C5.38317 0 0 5.38322 0 12C0 18.6168 5.38317 24 12 24C18.6168 24 24 18.6168 24 12C24 5.38322 18.6168 0 12 0ZM12 22.875C6.00352 22.875 1.125 17.9965 1.125 12C1.125 6.00352 6.00352 1.125 12 1.125C17.9965 1.125 22.875 6.00352 22.875 12C22.875 17.9965 17.9965 22.875 12 22.875Z" fill="white"/>
</svg>
