<svg width="24" height="24" viewBox="0 0 24 24" fill="none" xmlns="http://www.w3.org/2000/svg">
<path d="M18.1733 14.5101L16.1867 13.3631C15.5312 12.9847 14.6898 13.21 14.3113 13.8656L14.2329 14.0014C14.115 14.2057 13.9453 14.3279 13.7143 14.3752C13.4833 14.4224 13.2791 14.3766 13.0904 14.235C12.4792 13.7764 11.8811 13.2556 11.3127 12.6872C10.7443 12.1188 10.2235 11.5207 9.76486 10.9095C9.6233 10.7209 9.5775 10.5169 9.6248 10.2856C9.67205 10.0546 9.7943 9.88495 9.99853 9.76706L10.1343 9.68869C10.7899 9.31017 11.0153 8.46891 10.6369 7.81331L9.48984 5.82666C9.14756 5.23378 8.43666 4.98497 7.79916 5.23519L7.77469 5.2448C6.78919 5.6317 6.12108 5.90747 5.82581 6.20273C4.99978 7.02877 4.91658 8.44289 5.59153 10.1846C6.20869 11.7773 7.40039 13.5062 8.94712 15.0529C10.4939 16.5997 12.2228 17.7913 13.8154 18.4085C14.5943 18.7103 15.3075 18.8606 15.932 18.8605C16.7041 18.8605 17.3407 18.6308 17.7973 18.1742C18.0925 17.879 18.3682 17.2112 18.755 16.226L18.7649 16.2008C19.015 15.5635 18.7663 14.8525 18.1733 14.5101ZM17.7177 15.7897L17.7078 15.8149C17.531 16.2652 17.163 17.2024 17.0018 17.3787C16.0233 18.3573 12.8014 17.3161 9.74259 14.2574C8.30409 12.8189 7.20239 11.2281 6.64045 9.77813C6.14362 8.49605 6.13664 7.48284 6.61941 7.00003C6.79772 6.83695 7.73527 6.46884 8.18583 6.29198L8.21025 6.28238C8.24003 6.27055 8.27177 6.26443 8.30381 6.26433C8.38941 6.26433 8.46937 6.30923 8.51555 6.38916L9.66258 8.37581C9.69538 8.43275 9.70425 8.50038 9.68725 8.56386C9.67024 8.62733 9.62875 8.68147 9.57187 8.71439L9.43608 8.79281C8.95073 9.07308 8.6348 9.51141 8.52262 10.0604C8.41031 10.6095 8.52877 11.1366 8.86514 11.5848C9.35555 12.2384 9.91139 12.8769 10.5173 13.4828C11.1231 14.0887 11.7616 14.6445 12.4153 15.135C12.8635 15.4713 13.3906 15.5897 13.9397 15.4775C14.4888 15.3652 14.9271 15.0493 15.2072 14.564L15.2856 14.4283C15.3185 14.3714 15.3726 14.3299 15.4361 14.3129C15.4996 14.2958 15.5673 14.3047 15.6242 14.3375L17.6108 15.4845C17.7196 15.5472 17.7636 15.6728 17.7177 15.7897ZM12 0C5.38317 0 0 5.38322 0 12C0 18.6168 5.38317 24 12 24C18.6168 24 24 18.6168 24 12C24 5.38322 18.6168 0 12 0ZM12 22.875C6.00352 22.875 1.125 17.9965 1.125 12C1.125 6.00352 6.00352 1.125 12 1.125C17.9965 1.125 22.875 6.00352 22.875 12C22.875 17.9965 17.9965 22.875 12 22.875Z" fill="white"/>
</svg>
